<?xml version="1.0" encoding="UTF-8" standalone="no"?>
<!-- Created with Inkscape (http://www.inkscape.org/) -->

<svg
   xmlns:dc="http://purl.org/dc/elements/1.1/"
   xmlns:cc="http://creativecommons.org/ns#"
   xmlns:rdf="http://www.w3.org/1999/02/22-rdf-syntax-ns#"
   xmlns:svg="http://www.w3.org/2000/svg"
   xmlns="http://www.w3.org/2000/svg"
   xmlns:sodipodi="http://sodipodi.sourceforge.net/DTD/sodipodi-0.dtd"
   xmlns:inkscape="http://www.inkscape.org/namespaces/inkscape"
   width="1128"
   height="800"
   viewBox="0 0 298.44999 211.66667"
   version="1.1"
   id="svg1366"
   inkscape:version="0.92.4 (unknown)"
   sodipodi:docname="logo-uc3m-transparent.svg">
  <defs
     id="defs1360" />
  <sodipodi:namedview
     id="base"
     pagecolor="#ffffff"
     bordercolor="#666666"
     borderopacity="1.0"
     inkscape:pageopacity="0.0"
     inkscape:pageshadow="2"
     inkscape:zoom="0.35"
     inkscape:cx="571.42857"
     inkscape:cy="445.71429"
     inkscape:document-units="mm"
     inkscape:current-layer="layer1"
     showgrid="false"
     units="px"
     inkscape:window-width="1368"
     inkscape:window-height="704"
     inkscape:window-x="0"
     inkscape:window-y="27"
     inkscape:window-maximized="1" />
  <metadata
     id="metadata1363">
    <rdf:RDF>
      <cc:Work
         rdf:about="">
        <dc:format>image/svg+xml</dc:format>
        <dc:type
           rdf:resource="http://purl.org/dc/dcmitype/StillImage" />
        <dc:title></dc:title>
      </cc:Work>
    </rdf:RDF>
  </metadata>
  <g
     inkscape:label="Capa 1"
     inkscape:groupmode="layer"
     id="layer1"
     transform="translate(0,-85.333317)">
    <path
       d="m 163.58152,197.19497 c -1.4291,1.53388 -3.54612,2.55658 -5.80743,2.55658 -4.32329,0 -7.82708,-3.5045 -7.82708,-7.82744 0,-4.32258 3.50379,-7.82743 7.82708,-7.82743 2.28671,0 4.36492,0.98072 5.79579,2.54388 l 0.019,-6.17925 c -1.73602,-0.8763 -3.7211,-1.36949 -5.79825,-1.36949 -7.08837,0 -12.83441,5.7464 -12.83441,12.83441 0,7.08872 5.74604,12.83476 12.83441,12.83476 2.08209,0 4.05941,-0.4953 5.79825,-1.37548 l -0.007,-6.19054"
       style="fill:#ffffff;fill-opacity:1;fill-rule:nonzero;stroke:none;stroke-width:0.03527778"
       id="path1142"
       inkscape:connector-curvature="0" />
    <path
       d="m 171.06147,195.58489 c 0,-2.71815 2.20345,-4.9216 4.92196,-4.9216 2.7185,0 4.92195,2.20345 4.92195,4.9216 0,2.71851 -2.20345,4.92196 -4.92195,4.92196 -2.71851,0 -4.92196,-2.20345 -4.92196,-4.92196 z m 9.81957,7.84437 c -1.41041,0.87489 -3.11609,1.38006 -4.89761,1.38006 -5.09447,0 -9.22444,-4.12997 -9.22444,-9.22443 0,-5.09411 4.12997,-9.22408 9.22444,-9.22408 1.80516,0 3.47556,0.51858 4.89761,1.41499 v -1.41499 h 4.32646 v 18.44851 h -4.32646 v -1.38006"
       style="fill:#ffffff;fill-opacity:1;fill-rule:evenodd;stroke:none;stroke-width:0.03527778"
       id="path1144"
       inkscape:connector-curvature="0" />
    <path
       d="m 198.03309,191.3766 c -0.44026,-0.25012 -0.94685,-0.39334 -1.48978,-0.39334 -1.67181,0 -3.04517,1.35537 -3.04517,3.02718 v 10.79888 h -4.64221 l 0.0183,-18.47391 h 4.62527 l 0.0346,1.14018 c 1.08761,-0.7172 2.38125,-1.13418 3.78107,-1.13418 h 0.0201 c 0.22719,0 0.4759,0.0113 0.69779,0.0335 v 5.00168"
       style="fill:#ffffff;fill-opacity:1;fill-rule:nonzero;stroke:none;stroke-width:0.03527778"
       id="path1146"
       inkscape:connector-curvature="0" />
    <path
       d="m 212.29308,195.57677 c 0,-2.71956 2.20415,-4.92407 4.92372,-4.92407 2.71956,0 4.92407,2.20451 4.92407,4.92407 0,2.71922 -2.20451,4.92373 -4.92407,4.92373 -2.71957,0 -4.92372,-2.20451 -4.92372,-4.92373 z m -4.30883,0 c 0,-5.0994 4.13385,-9.23254 9.23255,-9.23254 5.09905,0 9.2329,4.13314 9.2329,9.23254 0,5.09905 -4.13385,9.23255 -9.2329,9.23255 -5.0987,0 -9.23255,-4.1335 -9.23255,-9.23255"
       style="fill:#ffffff;fill-opacity:1;fill-rule:evenodd;stroke:none;stroke-width:0.03527778"
       id="path1148"
       inkscape:connector-curvature="0" />
    <path
       d="m 238.13934,191.08415 2.45604,-2.5019 c -1.38536,-1.37513 -3.29283,-2.22462 -5.39927,-2.22462 -0.75565,0 -1.46755,0.10937 -2.15759,0.31327 -2.50648,0.77294 -4.37444,3.06599 -4.37444,5.82648 0,0.1845 0.0169,0.36724 0.0332,0.54822 0.22296,1.54516 1.36455,2.78835 2.79929,3.29247 l 4.28555,1.63442 c 0.66816,0.27693 0.91263,0.75247 0.91263,1.37618 0,1.32222 -1.51094,1.70992 -2.58233,1.70992 -1.63653,0 -3.05929,-0.756 -3.97686,-1.96709 l -2.42676,2.40771 c 1.53811,2.00977 3.95958,3.31011 6.6862,3.31011 1.64182,0 3.15771,-0.47201 4.4524,-1.28517 1.50495,-0.9726 2.50155,-2.66523 2.50155,-4.59069 0,-2.27436 -1.34761,-4.19559 -3.32458,-5.01756 l -3.20922,-1.20791 c -0.63147,-0.20885 -1.08444,-0.68228 -1.08444,-1.35996 0,-0.81845 0.66499,-1.50142 1.48344,-1.50142 1.15675,0 2.17134,0.47766 2.92523,1.23754"
       style="fill:#ffffff;fill-opacity:1;fill-rule:nonzero;stroke:none;stroke-width:0.03527778"
       id="path1150"
       inkscape:connector-curvature="0" />
    <path
       d="m 200.84614,179.10417 h 4.61469 v 25.70515 h -4.61469 v -25.70515"
       style="fill:#ffffff;fill-opacity:1;fill-rule:evenodd;stroke:none;stroke-width:0.03527778"
       id="path1152"
       inkscape:connector-curvature="0" />
    <path
       d="m 125.12663,155.77427 h 2.36361 v 74.57158 h -2.36361 v -74.57158"
       style="fill:#ffffff;fill-opacity:1;fill-rule:evenodd;stroke:none;stroke-width:0.03527778"
       id="path1154"
       inkscape:connector-curvature="0" />
    <path
       d="m 54.55731,192.40883 c -1.042458,-1.00753 -2.465562,-1.62736 -4.030485,-1.62736 -2.574925,0 -4.669013,2.0895 -4.669013,4.66443 0,2.57492 2.087386,4.66442 4.661957,4.66442 1.574096,0 2.992615,-0.62724 4.037541,-1.64465 v 5.36999 c -1.217083,0.58455 -2.59715,0.91193 -4.037541,0.91193 -5.137149,0 -9.301691,-4.16454 -9.301691,-9.30169 0,-5.13751 4.164542,-9.3017 9.301691,-9.3017 1.442508,0 2.819048,0.32809 4.037541,0.91405 v 5.35058"
       style="fill:#ffffff;fill-opacity:1;fill-rule:nonzero;stroke:none;stroke-width:0.03527778"
       id="path1156"
       inkscape:connector-curvature="0" />
    <path
       d="m 34.204327,186.08106 v 10.52653 c 0,1.92511 -1.564075,3.48615 -3.489183,3.48615 -1.92525,0 -3.485868,-1.56104 -3.485868,-3.48615 v -10.52653 h -4.656561 v 10.52371 c 0,4.49862 3.646735,8.14529 8.14518,8.14529 4.498481,0 8.152094,-3.64667 8.152094,-8.14529 v -10.52371 h -4.665662"
       style="fill:#ffffff;fill-opacity:1;fill-rule:evenodd;stroke:none;stroke-width:0.03527778"
       id="path1158"
       inkscape:connector-curvature="0" />
    <path
       d="m 66.222615,183.77812 -2.68958,6.9977 3.252259,0.002 -0.06632,0.008 c 2.575277,0 4.655609,2.08739 4.655609,4.66231 0,2.57493 -2.087388,4.66231 -4.662313,4.66231 -2.574571,0 -4.661959,-2.08738 -4.661959,-4.66231 l -4.636558,0.009 c 0,5.13751 4.161367,9.29288 9.298517,9.29288 5.137504,0 9.302043,-4.1649 9.302043,-9.3017 0,-3.97086 -2.481085,-7.36035 -5.982755,-8.69491 l 2.970035,-7.67891 -14.387335,0.0349 v 4.66408 l 7.608358,0.005"
       style="fill:#ffffff;fill-opacity:1;fill-rule:evenodd;stroke:none;stroke-width:0.03527778"
       id="path1160"
       inkscape:connector-curvature="0" />
    <path
       d="m 94.098054,188.79956 c -1.383945,-1.65135 -3.461808,-2.70122 -5.78485,-2.70122 -1.521177,0 -2.930525,0.45015 -4.115504,1.22485 l 0.01728,-1.22026 h -4.643967 v 18.63302 h 4.643967 l 0.02117,-10.4955 c 0,-1.9251 1.553634,-3.48544 3.479094,-3.48544 1.925108,0 3.478038,1.57162 3.478038,3.49709 v 10.48385 H 95.863 l 0.0021,-10.4955 c 0,-1.9251 1.553633,-3.48544 3.478742,-3.48544 1.925118,0 3.485808,1.56034 3.485808,3.48544 l -0.008,10.4955 h 4.66619 l 0.0138,-11.09663 c 0,-4.17936 -3.4036,-7.54098 -7.582966,-7.54098 -2.33962,0 -4.432652,1.03329 -5.820833,2.70122"
       style="fill:#ffffff;fill-opacity:1;fill-rule:evenodd;stroke:none;stroke-width:0.03527778"
       id="path1162"
       inkscape:connector-curvature="0" />
    <path
       d="m 249.70657,179.04843 h 5.62363 v 25.70551 h -5.62363 v -25.70551"
       style="fill:#ffffff;fill-opacity:1;fill-rule:evenodd;stroke:none;stroke-width:0.03527778"
       id="path1164"
       inkscape:connector-curvature="0" />
    <path
       d="m 269.80009,179.04843 h 5.62363 v 25.70551 h -5.62363 v -25.70551"
       style="fill:#ffffff;fill-opacity:1;fill-rule:evenodd;stroke:none;stroke-width:0.03527778"
       id="path1166"
       inkscape:connector-curvature="0" />
    <path
       d="m 259.75333,179.04843 h 5.62398 v 25.70551 h -5.62398 v -25.70551"
       style="fill:#ffffff;fill-opacity:1;fill-rule:evenodd;stroke:none;stroke-width:0.03527778"
       id="path1168"
       inkscape:connector-curvature="0" />
    <path
       d="m 144.86948,167.23072 0.0113,-11.43141 h 1.91558 l -0.005,11.43141 c 0,2.94182 2.38443,5.32625 5.32624,5.32625 2.94146,0 5.38409,-2.38478 5.38409,-5.32625 l -0.0318,-11.43141 h 1.91594 l -0.004,11.43141 c 0,4.00298 -3.26108,7.24783 -7.26405,7.24783 -4.00297,0 -7.24782,-3.24485 -7.24782,-7.24783"
       style="fill:#ffffff;fill-opacity:1;fill-rule:evenodd;stroke:none;stroke-width:0.03527778"
       id="path1170"
       inkscape:connector-curvature="0" />
    <path
       d="m 163.89232,166.40911 c 0,-1.95051 1.54975,-3.53131 3.49991,-3.53131 1.95015,0 3.5313,1.5808 3.5313,3.53131 l 0.0117,8.06944 h 1.91558 l 0.0159,-8.22114 c 0,-2.9143 -2.39818,-5.28708 -5.31248,-5.28708 -1.42557,0 -2.72415,0.58949 -3.67347,1.50848 v -1.52788 h -1.91559 v 13.52762 h 1.91559 l 0.0116,-8.06944"
       style="fill:#ffffff;fill-opacity:1;fill-rule:evenodd;stroke:none;stroke-width:0.03527778"
       id="path1172"
       inkscape:connector-curvature="0" />
    <path
       d="m 174.63229,157.08519 c 0,-0.7045 0.5715,-1.27565 1.27564,-1.27565 0.7045,0 1.27565,0.57115 1.27565,1.27565 0,0.70414 -0.57115,1.27529 -1.27565,1.27529 -0.70414,0 -1.27564,-0.57115 -1.27564,-1.27529 z m 0.31785,3.84069 h 1.91558 v 13.55267 h -1.91558 v -13.55267"
       style="fill:#ffffff;fill-opacity:1;fill-rule:evenodd;stroke:none;stroke-width:0.03527778"
       id="path1174"
       inkscape:connector-curvature="0" />
    <path
       d="m 185.30699,174.47855 -6.70666,-13.71918 h 2.15653 l 4.53143,9.3472 4.42771,-9.3472 h 2.15618 l -6.56519,13.71918"
       style="fill:#ffffff;fill-opacity:1;fill-rule:evenodd;stroke:none;stroke-width:0.03527778"
       id="path1176"
       inkscape:connector-curvature="0" />
    <path
       d="m 194.39384,166.71814 c 0.44838,-2.22779 2.40065,-3.9056 4.76003,-3.9056 2.35338,0 4.31694,1.66899 4.77202,3.88796 z m 8.16116,4.46864 c -0.87665,0.84737 -2.08562,1.36878 -3.40113,1.36878 -2.36643,0 -4.33917,-1.68769 -4.77979,-3.92501 l 11.50832,0.004 c 0.0434,-0.31045 0.066,-0.62795 0.066,-0.95039 0,-3.75249 -3.04165,-6.7945 -6.7945,-6.7945 -3.7525,0 -6.79486,3.04201 -6.79486,6.7945 0,3.75251 3.04236,6.79451 6.79486,6.79451 1.85561,0 3.55776,-0.74366 4.7879,-1.94945 l -1.38677,-1.34232"
       style="fill:#ffffff;fill-opacity:1;fill-rule:evenodd;stroke:none;stroke-width:0.03527778"
       id="path1178"
       inkscape:connector-curvature="0" />
    <path
       d="m 214.78898,161.0938 c -0.36759,-0.0808 -0.74577,-0.12347 -1.1363,-0.12347 -1.42557,0 -2.7245,0.58949 -3.67383,1.50848 v -1.52788 h -1.91558 v 13.52762 h 1.91558 l 0.0117,-8.06944 c 0,-1.95051 1.54975,-3.53131 3.4999,-3.53131 0.45121,0 0.9017,0.0847 1.29858,0.23883 v -2.02283"
       style="fill:#ffffff;fill-opacity:1;fill-rule:evenodd;stroke:none;stroke-width:0.03527778"
       id="path1180"
       inkscape:connector-curvature="0" />
    <path
       d="m 247.97443,167.68404 c 0,-2.69028 2.18087,-4.8715 4.87116,-4.8715 2.69028,0 4.8715,2.18122 4.8715,4.8715 0,2.69064 -2.18122,4.87152 -4.8715,4.87152 -2.69029,0 -4.87116,-2.18088 -4.87116,-4.87152 z m 9.78076,4.72088 c -1.23507,1.27882 -2.9912,2.07363 -4.9096,2.07363 -3.7525,0 -6.7945,-3.042 -6.7945,-6.79451 0,-3.75249 3.042,-6.7945 6.7945,-6.7945 1.93004,0 3.67347,0.79481 4.9096,2.08704 v -2.08704 h 1.9237 v 13.48635 h -1.9237 v -1.97097"
       style="fill:#ffffff;fill-opacity:1;fill-rule:evenodd;stroke:none;stroke-width:0.03527778"
       id="path1182"
       inkscape:connector-curvature="0" />
    <path
       d="m 226.34033,157.08519 c 0,-0.7045 0.57115,-1.27565 1.27565,-1.27565 0.70414,0 1.27529,0.57115 1.27529,1.27565 0,0.70414 -0.57115,1.27529 -1.27529,1.27529 -0.7045,0 -1.27565,-0.57115 -1.27565,-1.27529 z m 0.3175,3.84069 h 1.91594 v 13.55267 h -1.91594 v -13.55267"
       style="fill:#ffffff;fill-opacity:1;fill-rule:evenodd;stroke:none;stroke-width:0.03527778"
       id="path1184"
       inkscape:connector-curvature="0" />
    <path
       d="m 263.48466,167.68404 c 0,-2.69028 2.18052,-4.8715 4.87115,-4.8715 2.69029,0 4.87151,2.18122 4.87151,4.8715 0,2.69064 -2.18122,4.87152 -4.87151,4.87152 -2.69063,0 -4.87115,-2.18088 -4.87115,-4.87152 z m 9.78076,4.72088 c -1.23543,1.27882 -2.9912,2.07363 -4.90961,2.07363 -3.75249,0 -6.7945,-3.042 -6.7945,-6.79451 0,-3.75249 3.04201,-6.7945 6.7945,-6.7945 1.93005,0 3.67277,0.79481 4.90961,2.08704 v -7.24465 h 1.92335 v 18.64396 h -1.92335 v -1.97097"
       style="fill:#ffffff;fill-opacity:1;fill-rule:evenodd;stroke:none;stroke-width:0.03527778"
       id="path1186"
       inkscape:connector-curvature="0" />
    <path
       d="m 232.4642,167.68404 c 0,-2.69028 2.18123,-4.8715 4.87151,-4.8715 2.69064,0 4.87116,2.18122 4.87116,4.8715 0,2.69064 -2.18052,4.87152 -4.87116,4.87152 -2.69028,0 -4.87151,-2.18088 -4.87151,-4.87152 z m 9.78147,4.72088 c -1.23542,1.27882 -2.99155,2.07363 -4.90996,2.07363 -3.7525,0 -6.7945,-3.042 -6.7945,-6.79451 0,-3.75249 3.042,-6.7945 6.7945,-6.7945 1.9297,0 3.67312,0.79481 4.90996,2.08704 v -7.24465 h 1.92335 v 18.64396 h -1.92335 v -1.97097"
       style="fill:#ffffff;fill-opacity:1;fill-rule:evenodd;stroke:none;stroke-width:0.03527778"
       id="path1188"
       inkscape:connector-curvature="0" />
    <path
       d="m 218.49808,164.32631 c -0.084,-0.92146 0.70662,-1.57163 1.57974,-1.57163 1.10949,0.0187 1.86549,0.6283 2.24967,1.43157 l 1.56562,-0.89076 c -0.8075,-1.57798 -2.11772,-2.43805 -3.67665,-2.43805 -2.03905,0 -3.69499,1.4538 -3.75743,3.47627 0,1.75049 1.05586,2.47474 2.47791,3.24062 l 2.75661,1.47708 c 0.66463,0.44309 0.9398,0.82338 0.9398,1.61467 -0.0487,0.96026 -0.96591,1.86584 -2.14454,1.86584 -1.36172,0 -2.2546,-0.79199 -2.85609,-1.89971 l -1.77518,0.86642 c 0.69321,1.94769 2.55341,2.97992 4.41396,2.97992 2.3308,0 4.33881,-1.72473 4.41925,-4.0827 0,-2.02389 -1.45486,-2.91218 -2.94323,-3.68053 -1.53705,-0.85443 -3.21733,-1.50883 -3.24944,-2.38901"
       style="fill:#ffffff;fill-opacity:1;fill-rule:evenodd;stroke:none;stroke-width:0.03527778"
       id="path1190"
       inkscape:connector-curvature="0" />
    <path
       d="m 146.79988,223.62155 c 0,-2.69064 2.18123,-4.87151 4.87151,-4.87151 2.69029,0 4.87151,2.18087 4.87151,4.87151 0,2.69028 -2.18122,4.87151 -4.87151,4.87151 -2.69028,0 -4.87151,-2.18123 -4.87151,-4.87151 z m 9.78112,4.72087 c -1.23507,1.27847 -2.9912,2.07363 -4.90961,2.07363 -3.7525,0 -6.7945,-3.042 -6.7945,-6.7945 0,-3.75285 3.042,-6.79485 6.7945,-6.79485 1.9297,0 3.67312,0.79481 4.90961,2.08703 v -7.24465 h 1.9237 v 18.64396 h -1.9237 v -1.97062"
       style="fill:#ffffff;fill-opacity:1;fill-rule:evenodd;stroke:none;stroke-width:0.03527778"
       id="path1192"
       inkscape:connector-curvature="0" />
    <path
       d="m 163.62385,222.65564 c 0.44839,-2.22814 2.4003,-3.9056 4.76004,-3.9056 2.35302,0 4.31694,1.66899 4.77202,3.88797 z m 8.16081,4.46864 c -0.8763,0.84702 -2.08562,1.36878 -3.40077,1.36878 -2.36644,0 -4.33917,-1.68804 -4.77944,-3.92501 l 11.50797,0.004 c 0.0437,-0.31009 0.066,-0.62795 0.066,-0.95003 0,-3.75285 -3.04201,-6.79485 -6.7945,-6.79485 -3.75285,0 -6.7945,3.042 -6.7945,6.79485 0,3.7525 3.04165,6.7945 6.7945,6.7945 1.85561,0 3.55741,-0.74401 4.78825,-1.9498 l -1.38748,-1.34197"
       style="fill:#ffffff;fill-opacity:1;fill-rule:evenodd;stroke:none;stroke-width:0.03527778"
       id="path1194"
       inkscape:connector-curvature="0" />
    <path
       d="m 213.58777,223.62155 c 0,-2.69064 2.18123,-4.87151 4.87151,-4.87151 2.69063,0 4.87115,2.18087 4.87115,4.87151 0,2.69028 -2.18052,4.87151 -4.87115,4.87151 -2.69028,0 -4.87151,-2.18123 -4.87151,-4.87151 z m 9.78147,4.72087 c -1.23578,1.27847 -2.99156,2.07363 -4.90996,2.07363 -3.7525,0 -6.79485,-3.042 -6.79485,-6.7945 0,-3.75285 3.04235,-6.79485 6.79485,-6.79485 1.93004,0 3.67277,0.79481 4.90996,2.08703 v -2.08668 h 1.92299 v 13.48599 h -1.92299 v -1.97062"
       style="fill:#ffffff;fill-opacity:1;fill-rule:evenodd;stroke:none;stroke-width:0.03527778"
       id="path1196"
       inkscape:connector-curvature="0" />
    <path
       d="m 230.30026,223.62155 c 0,-2.69064 2.18123,-4.87151 4.87151,-4.87151 2.69029,0 4.87116,2.18087 4.87116,4.87151 0,2.69028 -2.18087,4.87151 -4.87116,4.87151 -2.69028,0 -4.87151,-2.18123 -4.87151,-4.87151 z m 9.78112,4.72087 c -1.23543,1.27847 -2.9912,2.07363 -4.90961,2.07363 -3.75285,0 -6.79485,-3.042 -6.79485,-6.7945 0,-3.75285 3.042,-6.79485 6.79485,-6.79485 1.93005,0 3.67277,0.79481 4.90961,2.08703 v -7.24465 h 1.92334 v 18.64396 h -1.92334 v -1.97062"
       style="fill:#ffffff;fill-opacity:1;fill-rule:evenodd;stroke:none;stroke-width:0.03527778"
       id="path1198"
       inkscape:connector-curvature="0" />
    <path
       d="m 252.82407,217.03096 c -0.36725,-0.0808 -0.74578,-0.12313 -1.1363,-0.12313 -1.42593,0 -2.72415,0.58914 -3.67383,1.50813 v -1.52788 h -1.91558 v 13.52797 h 1.91558 l 0.0116,-8.06979 c 0,-1.95016 1.5494,-3.53131 3.49991,-3.53131 0.45156,0 0.9017,0.0847 1.29858,0.23918 v -2.02317"
       style="fill:#ffffff;fill-opacity:1;fill-rule:evenodd;stroke:none;stroke-width:0.03527778"
       id="path1200"
       inkscape:connector-curvature="0" />
    <path
       d="m 255.90876,213.02234 c 0,-0.7045 0.57114,-1.27529 1.27529,-1.27529 0.70449,0 1.27564,0.57079 1.27564,1.27529 0,0.70414 -0.57115,1.27529 -1.27564,1.27529 -0.70415,0 -1.27529,-0.57115 -1.27529,-1.27529 z m 0.3175,3.84104 h 1.91558 v 13.55267 h -1.91558 v -13.55267"
       style="fill:#ffffff;fill-opacity:1;fill-rule:evenodd;stroke:none;stroke-width:0.03527778"
       id="path1202"
       inkscape:connector-curvature="0" />
    <path
       d="m 263.46808,223.62155 c 0,-2.69064 2.18052,-4.87151 4.87115,-4.87151 2.69029,0 4.87151,2.18087 4.87151,4.87151 0,2.69028 -2.18122,4.87151 -4.87151,4.87151 -2.69063,0 -4.87115,-2.18123 -4.87115,-4.87151 z m 9.78076,4.72087 c -1.23543,1.27847 -2.9912,2.07363 -4.90961,2.07363 -3.75249,0 -6.7945,-3.042 -6.7945,-6.7945 0,-3.75285 3.04201,-6.79485 6.7945,-6.79485 1.93005,0 3.67313,0.79481 4.90961,2.08703 v -7.24465 h 1.9237 v 18.64396 h -1.9237 v -1.97062"
       style="fill:#ffffff;fill-opacity:1;fill-rule:evenodd;stroke:none;stroke-width:0.03527778"
       id="path1204"
       inkscape:connector-curvature="0" />
    <path
       d="m 196.44841,226.16014 7.24465,-14.8015 4.88703,18.82704 h -2.02177 l -3.44099,-13.32723 -6.66997,13.67366 -6.6675,-13.67366 -3.4417,13.32723 h -2.02107 l 4.88633,-18.82704 7.24499,14.8015 v 0"
       style="fill:#ffffff;fill-opacity:1;fill-rule:evenodd;stroke:none;stroke-width:0.03527778"
       id="path1206"
       inkscape:connector-curvature="0" />
  </g>
</svg>
